<svg xmlns="http://www.w3.org/2000/svg" viewBox="0 0 100 100">
  <defs>
    <linearGradient id="grad" x1="0%" y1="0%" x2="100%" y2="100%">
      <stop offset="0%" style="stop-color:#2563eb;stop-opacity:1" />
      <stop offset="100%" style="stop-color:#4f46e5;stop-opacity:1" />
    </linearGradient>
  </defs>
  <rect width="100" height="100" rx="20" fill="url(#grad)"/>
  <g fill="white">
    <!-- Calculator display -->
    <rect x="20" y="18" width="60" height="20" rx="4" fill="rgba(255,255,255,0.3)"/>
    <!-- Calculator buttons -->
    <rect x="20" y="45" width="12" height="12" rx="2"/>
    <rect x="37" y="45" width="12" height="12" rx="2"/>
    <rect x="54" y="45" width="12" height="12" rx="2"/>
    <rect x="71" y="45" width="12" height="12" rx="2" fill="#fbbf24"/>
    <rect x="20" y="62" width="12" height="12" rx="2"/>
    <rect x="37" y="62" width="12" height="12" rx="2"/>
    <rect x="54" y="62" width="12" height="12" rx="2"/>
    <rect x="71" y="62" width="12" height="28" rx="2" fill="#22c55e"/>
    <rect x="20" y="79" width="29" height="12" rx="2"/>
    <rect x="54" y="79" width="12" height="12" rx="2"/>
  </g>
</svg>

